<?xml version="1.0" encoding="UTF-8"?>
<!DOCTYPE svg PUBLIC "-//W3C//DTD SVG 1.1//EN" "http://www.w3.org/Graphics/SVG/1.1/DTD/svg11.dtd">
<!-- Creator: CorelDRAW 2019 (64-Bit) -->
<svg xmlns="http://www.w3.org/2000/svg" xml:space="preserve" width="1875px" height="1540px" version="1.1" style="shape-rendering:geometricPrecision; text-rendering:geometricPrecision; image-rendering:optimizeQuality; fill-rule:evenodd; clip-rule:evenodd"
viewBox="0 0 368.65 302.8"
 xmlns:xlink="http://www.w3.org/1999/xlink">
 <defs>
  <style type="text/css">
   <![CDATA[
    .fil0 {fill:#3F4E55;fill-rule:nonzero}
    .fil1 {fill:white;fill-rule:nonzero}
   ]]>
  </style>
 </defs>
 <g id="Capa_x0020_1">
  <metadata id="CorelCorpID_0Corel-Layer"/>
  <path class="fil0" d="M124.44 289.92l-25.87 -32.81 7.29 0 13.12 17.74 -1.21 -76.98 11.65 0 0 8.93c1.9,-3.03 4.36,-5.44 7.44,-7.18 3.03,-1.8 6.52,-2.67 10.53,-2.67 3.49,0 6.72,0.72 9.7,2.15 2.98,1.44 5.54,3.34 7.7,5.75 2.16,2.41 3.85,5.29 5.08,8.52 1.23,3.29 1.85,6.78 1.85,10.43 0,3.74 -0.57,7.29 -1.69,10.62 -1.13,3.29 -2.73,6.16 -4.73,8.63 -2,2.46 -4.41,4.36 -7.18,5.75 -2.78,1.38 -5.86,2.1 -9.14,2.1 -4.11,0 -7.7,-0.92 -10.73,-2.77 -3.03,-1.8 -4.98,-3.85 -6.57,-6.93l0 15.96 -7.19 0 -0.05 32.76zm20.07 -50.36l0 0c1.95,0 3.8,-0.42 5.49,-1.29 1.7,-0.87 3.14,-2 4.32,-3.49 1.18,-1.44 2.1,-3.13 2.77,-5.03 0.67,-1.95 1.03,-3.9 1.03,-5.95 0,-2.21 -0.36,-4.27 -1.13,-6.11 -0.72,-1.9 -1.7,-3.55 -3.03,-4.93 -1.29,-1.39 -2.77,-2.52 -4.57,-3.29 -1.75,-0.77 -3.65,-1.18 -5.7,-1.18 -1.23,0 -2.52,0.21 -3.85,0.62 -1.33,0.46 -2.57,1.08 -3.7,1.85 -1.13,0.82 -2.1,1.74 -3.03,2.77 -0.87,1.08 -1.54,2.26 -2,3.49l0 12.22c1.18,2.97 2.98,5.44 5.44,7.39 2.47,1.95 5.09,2.93 7.96,2.93l0 0zm-101.59 12.21c-4.16,0 -7.96,-0.72 -11.35,-2.15 -3.34,-1.39 -6.21,-3.34 -8.62,-5.8 -2.36,-2.47 -4.21,-5.29 -5.5,-8.53 -1.28,-3.23 -1.95,-6.67 -1.95,-10.21 0,-3.75 0.62,-7.24 1.9,-10.53 1.24,-3.23 3.08,-6.1 5.44,-8.62 2.42,-2.46 5.29,-4.41 8.68,-5.9 3.44,-1.44 7.24,-2.16 11.5,-2.16 4.21,0 8.01,0.72 11.35,2.16 3.33,1.49 6.21,3.44 8.57,5.85 2.31,2.46 4.11,5.29 5.34,8.57 1.23,3.24 1.85,6.62 1.85,10.12 0,0.87 0,1.69 -0.06,2.46 -0.05,0.82 -0.1,1.49 -0.25,2l-40.2 0c0.21,2.06 0.67,3.85 1.49,5.44 0.77,1.59 1.8,2.98 3.08,4.11 1.23,1.13 2.67,1.95 4.26,2.57 1.59,0.61 3.24,0.87 4.98,0.87 2.62,0 5.13,-0.62 7.5,-1.9 2.31,-1.33 3.95,-3.03 4.77,-5.13l11.45 3.18c-1.95,3.95 -4.98,7.24 -9.19,9.75 -4.21,2.57 -9.24,3.85 -15.04,3.85l0 0zm13.5 -31.36l0 0c-0.31,-3.9 -1.8,-7.04 -4.31,-9.4 -2.57,-2.36 -5.65,-3.54 -9.3,-3.54 -1.79,0 -3.44,0.31 -5.03,0.98 -1.54,0.61 -2.92,1.48 -4.1,2.61 -1.18,1.13 -2.16,2.47 -2.93,4.06 -0.77,1.59 -1.23,3.34 -1.33,5.29l27 0 0 0zm36.55 31.36c-4.36,0 -8.62,-0.72 -12.83,-2.1 -4.16,-1.39 -7.76,-3.34 -10.73,-5.96l4.98 -8.31c3.18,2.26 6.26,3.95 9.29,5.08 3.03,1.18 6,1.75 8.98,1.75 2.67,0 4.72,-0.47 6.26,-1.49 1.55,-0.98 2.26,-2.42 2.26,-4.26 0,-1.85 -0.87,-3.24 -2.67,-4.06 -1.79,-0.87 -4.67,-1.85 -8.72,-2.98 -3.39,-0.92 -6.27,-1.85 -8.63,-2.72 -2.41,-0.82 -4.31,-1.8 -5.8,-2.92 -1.44,-1.08 -2.51,-2.31 -3.13,-3.75 -0.67,-1.44 -1.03,-3.13 -1.03,-5.14 0,-2.61 0.52,-5.03 1.54,-7.13 1.03,-2.11 2.47,-3.9 4.32,-5.39 1.84,-1.49 4.05,-2.67 6.52,-3.44 2.46,-0.82 5.18,-1.18 8.11,-1.18 3.9,0 7.54,0.56 10.93,1.69 3.44,1.08 6.57,2.93 9.4,5.44l-5.34 8.06c-2.67,-2 -5.24,-3.44 -7.7,-4.41 -2.52,-0.93 -4.98,-1.39 -7.4,-1.39 -2.25,0 -4.15,0.46 -5.69,1.39 -1.49,0.97 -2.26,2.46 -2.26,4.52 0,0.92 0.15,1.64 0.56,2.25 0.36,0.62 0.93,1.13 1.7,1.6 0.82,0.46 1.84,0.92 3.13,1.33 1.33,0.41 2.92,0.87 4.82,1.34 3.6,0.92 6.63,1.84 9.19,2.77 2.57,0.92 4.62,2 6.26,3.18 1.65,1.18 2.83,2.57 3.6,4.16 0.72,1.54 1.13,3.39 1.13,5.59 0,5.09 -1.9,9.09 -5.65,12.07 -3.8,2.92 -8.93,4.41 -15.4,4.41l0 0zm97.08 0c-2.52,0 -4.83,-0.41 -7.04,-1.23 -2.15,-0.82 -4.05,-2 -5.64,-3.49 -1.59,-1.49 -2.83,-3.23 -3.75,-5.24 -0.87,-1.95 -1.34,-4.15 -1.34,-6.52 0,-2.46 0.57,-4.72 1.65,-6.82 1.07,-2.06 2.62,-3.85 4.57,-5.29 1.95,-1.49 4.31,-2.62 7.03,-3.44 2.67,-0.82 5.65,-1.23 8.93,-1.23 2.31,0 4.57,0.2 6.78,0.61 2.21,0.36 4.21,0.93 5.9,1.65l0 -2.98c0,-3.44 -0.97,-6.06 -2.92,-7.91 -1.96,-1.85 -4.83,-2.82 -8.68,-2.82 -2.77,0 -5.49,0.51 -8.16,1.49 -2.62,1.02 -5.34,2.46 -8.11,4.41l-4.11 -8.47c6.72,-4.41 13.91,-6.62 21.66,-6.62 7.5,0 13.3,1.8 17.46,5.49 4.1,3.7 6.16,8.99 6.16,15.92l0 16.22c0,1.39 0.25,2.36 0.77,2.98 0.51,0.56 1.28,0.92 2.41,0.97l0 11.35c-2.26,0.46 -4.21,0.67 -5.85,0.67 -2.52,0 -4.47,-0.57 -5.8,-1.7 -1.34,-1.13 -2.21,-2.62 -2.52,-4.47l-0.31 -2.87c-2.31,3.03 -5.13,5.39 -8.47,6.93 -3.28,1.59 -6.82,2.41 -10.62,2.41l0 0zm3.8 -9.75l0 0c2.25,0 4.36,-0.36 6.41,-1.18 2,-0.77 3.6,-1.85 4.73,-3.18 1.43,-1.13 2.15,-2.37 2.15,-3.75l0 -5.96c-1.59,-0.61 -3.28,-1.07 -5.13,-1.43 -1.9,-0.36 -3.65,-0.57 -5.39,-0.57 -3.44,0 -6.27,0.77 -8.42,2.31 -2.21,1.59 -3.29,3.54 -3.29,5.96 0,2.2 0.88,4.1 2.57,5.59 1.75,1.49 3.85,2.21 6.37,2.21l0 0zm30.9 -17.25c0,-3.64 0.62,-7.08 1.85,-10.32 1.28,-3.28 3.08,-6.11 5.49,-8.57 2.36,-2.41 5.24,-4.36 8.63,-5.85 3.38,-1.44 7.18,-2.16 11.39,-2.16 5.7,0 10.58,1.18 14.58,3.65 4.01,2.46 6.98,5.64 8.99,9.65l-13.04 3.95c-1.08,-1.9 -2.57,-3.39 -4.47,-4.42 -1.85,-1.02 -3.9,-1.54 -6.16,-1.54 -1.9,0 -3.7,0.42 -5.34,1.13 -1.64,0.77 -3.08,1.85 -4.31,3.19 -1.23,1.38 -2.21,3.03 -2.88,4.92 -0.72,1.9 -1.07,4.06 -1.07,6.37 0,2.31 0.41,4.42 1.13,6.37 0.71,1.9 1.69,3.54 2.92,4.92 1.23,1.39 2.67,2.47 4.31,3.24 1.65,0.77 3.39,1.13 5.24,1.13 2.41,0 4.62,-0.57 6.62,-1.75 2,-1.23 3.44,-2.67 4.21,-4.41l13.04 4c-1.8,3.96 -4.77,7.19 -8.83,9.7 -4.11,2.52 -9.03,3.8 -14.83,3.8 -4.21,0 -8.01,-0.72 -11.4,-2.2 -3.39,-1.44 -6.26,-3.39 -8.63,-5.91 -2.41,-2.46 -4.26,-5.34 -5.54,-8.62 -1.28,-3.29 -1.9,-6.73 -1.9,-10.27l0 0zm54.31 -33.27l0 -13.19 13.3 0 0 13.19 -13.3 0zm0 59.3l0 0 0 -52.06 13.3 0 0 52.06 -13.3 0zm44.46 0.97c-4.21,0 -8.06,-0.72 -11.4,-2.2 -3.38,-1.44 -6.26,-3.39 -8.62,-5.91 -2.31,-2.46 -4.16,-5.34 -5.39,-8.57 -1.28,-3.23 -1.9,-6.67 -1.9,-10.22 0,-3.64 0.62,-7.08 1.9,-10.32 1.23,-3.28 3.08,-6.1 5.39,-8.62 2.36,-2.46 5.24,-4.41 8.62,-5.9 3.34,-1.44 7.19,-2.16 11.4,-2.16 4.26,0 8.06,0.72 11.4,2.16 3.33,1.49 6.16,3.44 8.52,5.9 2.36,2.52 4.16,5.34 5.39,8.62 1.28,3.24 1.9,6.68 1.9,10.32 0,3.55 -0.62,6.98 -1.9,10.22 -1.23,3.23 -3.03,6.11 -5.34,8.57 -2.31,2.52 -5.18,4.47 -8.52,5.91 -3.39,1.48 -7.19,2.2 -11.45,2.2zm-13.6 -26.9l0 0c0,2.31 0.36,4.42 1.02,6.32 0.72,1.85 1.7,3.49 2.93,4.87 1.18,1.39 2.62,2.47 4.31,3.24 1.64,0.77 3.44,1.13 5.34,1.13 1.95,0 3.7,-0.36 5.39,-1.13 1.64,-0.77 3.08,-1.85 4.31,-3.24 1.24,-1.38 2.16,-3.02 2.88,-4.92 0.67,-1.95 1.02,-4.06 1.02,-6.37 0,-2.26 -0.35,-4.36 -1.02,-6.26 -0.72,-1.9 -1.64,-3.6 -2.88,-4.98 -1.23,-1.39 -2.67,-2.47 -4.31,-3.24 -1.69,-0.71 -3.44,-1.13 -5.39,-1.13 -1.9,0 -3.7,0.42 -5.34,1.19 -1.69,0.82 -3.13,1.89 -4.31,3.28 -1.23,1.39 -2.21,3.03 -2.93,4.98 -0.66,1.9 -1.02,4 -1.02,6.26z"/>
  <path class="fil0" d="M284.92 93.86c-3.55,40.05 -25.72,75.52 -57.6,87.02l0 -125.88 -64.89 1.75 0.15 120.59c-33.67,-13.3 -56.72,-42.05 -56.72,-81.42 0,-49.85 37.06,-92.61 85.06,-95.75 50.72,-3.23 98.87,38.87 94,93.69l0 0z"/>
  <polygon class="fil1" points="224.76,179.76 184.76,162.29 184.76,65.63 224.76,56.49 "/>
  <path class="fil1" d="M0 279.44c0,-2.72 0.51,-5.44 1.49,-8.11 0.97,-2.72 2.41,-5.13 4.31,-7.29 1.85,-2.15 4.16,-3.9 6.88,-5.18 2.77,-1.34 5.85,-2 9.29,-2 4.11,0 7.65,0.92 10.58,2.77 2.92,1.79 5.13,4.21 6.62,7.13l-5.6 3.75c-0.61,-1.33 -1.38,-2.51 -2.31,-3.44 -0.87,-0.92 -1.84,-1.69 -2.92,-2.21 -1.08,-0.56 -2.16,-0.97 -3.34,-1.18 -1.13,-0.25 -2.26,-0.36 -3.28,-0.36 -2.42,0 -4.47,0.47 -6.27,1.44 -1.79,0.93 -3.28,2.21 -4.52,3.8 -1.18,1.54 -2.1,3.34 -2.72,5.29 -0.61,1.95 -0.92,3.9 -0.92,5.85 0,2.21 0.36,4.31 1.08,6.31 0.72,2.01 1.74,3.8 3.03,5.34 1.28,1.49 2.82,2.72 4.62,3.65 1.79,0.92 3.74,1.38 5.9,1.38 1.08,0 2.21,-0.15 3.39,-0.41 1.18,-0.3 2.31,-0.71 3.39,-1.33 1.07,-0.62 2.1,-1.39 2.97,-2.36 0.93,-0.93 1.7,-2.06 2.31,-3.39l5.91 3.39c-0.72,1.69 -1.75,3.23 -3.08,4.52 -1.29,1.28 -2.77,2.41 -4.47,3.28 -1.64,0.87 -3.39,1.59 -5.23,2.05 -1.85,0.47 -3.7,0.67 -5.45,0.67 -3.23,0 -6.1,-0.67 -8.77,-2 -2.62,-1.39 -4.93,-3.13 -6.83,-5.34 -1.9,-2.21 -3.39,-4.67 -4.47,-7.49 -1.08,-2.78 -1.59,-5.6 -1.59,-8.53l0 0zm64.32 23.31c-3.23,0 -6.16,-0.62 -8.83,-1.95 -2.67,-1.28 -4.92,-3.03 -6.82,-5.13 -1.95,-2.16 -3.44,-4.62 -4.47,-7.4 -1.03,-2.77 -1.54,-5.59 -1.54,-8.47 0,-3.03 0.51,-5.95 1.64,-8.72 1.13,-2.72 2.62,-5.19 4.57,-7.35 1.95,-2.1 4.21,-3.79 6.88,-5.03 2.67,-1.28 5.6,-1.9 8.73,-1.9 3.23,0 6.16,0.67 8.83,2.01 2.67,1.33 4.93,3.08 6.83,5.28 1.9,2.16 3.38,4.62 4.41,7.35 1.03,2.77 1.54,5.54 1.54,8.41 0,3.03 -0.51,5.91 -1.59,8.68 -1.08,2.77 -2.62,5.19 -4.57,7.29 -1.95,2.1 -4.26,3.8 -6.93,5.08 -2.67,1.23 -5.54,1.85 -8.68,1.85zm-14.42 -22.95l0 0c0,2.11 0.36,4.16 1.03,6.16 0.71,2.01 1.64,3.8 2.92,5.29 1.23,1.54 2.77,2.77 4.57,3.7 1.8,0.92 3.8,1.38 6.01,1.38 2.26,0 4.31,-0.51 6.05,-1.43 1.8,-0.98 3.29,-2.26 4.52,-3.8 1.23,-1.59 2.16,-3.34 2.83,-5.34 0.61,-1.95 0.92,-3.95 0.92,-5.96 0,-2.2 -0.31,-4.26 -0.98,-6.26 -0.71,-1.95 -1.69,-3.7 -2.92,-5.24 -1.23,-1.48 -2.77,-2.72 -4.52,-3.64 -1.8,-0.87 -3.75,-1.34 -5.9,-1.34 -2.31,0 -4.37,0.47 -6.16,1.44 -1.8,0.93 -3.29,2.21 -4.52,3.7 -1.23,1.54 -2.21,3.28 -2.82,5.29 -0.67,2 -1.03,4 -1.03,6.05zm50.21 -9.29l0 31.93 -7.19 0 0 -45.33 5.65 0 25.87 32.81 0.05 -32.76 7.19 0 0 45.28 -5.91 0 -25.66 -31.93zm74.43 -7.08l-15.09 0 0 39.01 -7.19 0 0 -39.01 -15.14 0 0 -6.32 37.42 0 0 6.32zm36.5 32.7l0 6.31 -31.11 0 0 -45.33 30.55 0 0 6.32 -23.36 0 0 12.88 20.23 0 0 5.96 -20.23 0 0 13.86 23.92 0zm13.92 -25.62l0 31.93 -7.14 0 0 -45.33 5.6 0 25.92 32.7 0 -32.65 7.24 0 0 45.28 -5.96 0 -25.66 -31.93zm41.17 31.93l0 -45.33 7.13 0 0 45.33 -7.13 0zm16.78 0l0 -45.33 16.07 0c3.7,0 6.88,0.62 9.65,1.8 2.72,1.18 5.03,2.82 6.88,4.82 1.85,2.06 3.24,4.47 4.16,7.19 0.98,2.77 1.44,5.7 1.44,8.78 0,3.44 -0.57,6.57 -1.59,9.34 -1.03,2.83 -2.52,5.19 -4.42,7.19 -1.95,1.95 -4.26,3.49 -6.98,4.57 -2.72,1.08 -5.75,1.64 -9.14,1.64l-16.07 0 0 0zm30.91 -22.74l0 0c0,-2.36 -0.36,-4.57 -0.98,-6.57 -0.66,-2 -1.64,-3.7 -2.92,-5.13 -1.29,-1.44 -2.83,-2.52 -4.67,-3.34 -1.8,-0.82 -3.91,-1.23 -6.27,-1.23l-8.93 0 0 32.7 8.93 0c2.42,0 4.52,-0.41 6.37,-1.23 1.85,-0.88 3.39,-2.01 4.67,-3.5 1.23,-1.43 2.21,-3.18 2.82,-5.18 0.67,-2 0.98,-4.16 0.98,-6.52l0 0zm33.06 23.05c-3.24,0 -6.16,-0.62 -8.83,-1.95 -2.67,-1.28 -4.98,-3.03 -6.88,-5.13 -1.9,-2.16 -3.39,-4.62 -4.41,-7.4 -1.08,-2.77 -1.6,-5.59 -1.6,-8.47 0,-3.03 0.57,-5.95 1.7,-8.72 1.08,-2.72 2.62,-5.19 4.52,-7.35 1.95,-2.1 4.26,-3.79 6.93,-5.03 2.67,-1.28 5.54,-1.9 8.67,-1.9 3.24,0 6.21,0.67 8.88,2.01 2.62,1.33 4.93,3.08 6.83,5.28 1.9,2.16 3.34,4.62 4.42,7.35 1.02,2.77 1.54,5.54 1.54,8.41 0,3.03 -0.57,5.91 -1.65,8.68 -1.08,2.77 -2.56,5.19 -4.57,7.29 -1.95,2.1 -4.26,3.8 -6.93,5.08 -2.61,1.23 -5.54,1.85 -8.62,1.85zm-14.43 -22.95l0 0c0,2.11 0.36,4.16 1.03,6.16 0.67,2.01 1.64,3.8 2.87,5.29 1.29,1.54 2.83,2.77 4.57,3.7 1.8,0.92 3.8,1.38 6.01,1.38 2.31,0 4.36,-0.51 6.11,-1.43 1.74,-0.98 3.28,-2.26 4.52,-3.8 1.23,-1.59 2.15,-3.34 2.77,-5.34 0.67,-1.95 0.97,-3.95 0.97,-5.96 0,-2.2 -0.36,-4.26 -1.02,-6.26 -0.67,-1.95 -1.65,-3.7 -2.88,-5.24 -1.28,-1.48 -2.77,-2.72 -4.57,-3.64 -1.74,-0.87 -3.69,-1.34 -5.9,-1.34 -2.31,0 -4.31,0.47 -6.11,1.44 -1.8,0.93 -3.28,2.21 -4.52,3.7 -1.23,1.54 -2.2,3.28 -2.87,5.29 -0.67,2 -0.98,4 -0.98,6.05z"/>
 </g>
</svg>
