<?xml version="1.0" encoding="UTF-8"?>
<!DOCTYPE svg PUBLIC "-//W3C//DTD SVG 1.1//EN" "http://www.w3.org/Graphics/SVG/1.1/DTD/svg11.dtd">
<!-- Creator: CorelDRAW 2019 (64-Bit) -->
<svg xmlns="http://www.w3.org/2000/svg" xml:space="preserve" width="600px" height="493px" version="1.1" style="shape-rendering:geometricPrecision; text-rendering:geometricPrecision; image-rendering:optimizeQuality; fill-rule:evenodd; clip-rule:evenodd"
viewBox="0 0 71.81 58.98"
 xmlns:xlink="http://www.w3.org/1999/xlink">
 <defs>
  <style type="text/css">
   <![CDATA[
    .fil3 {fill:none;fill-rule:nonzero}
    .fil0 {fill:#E77355;fill-rule:nonzero}
    .fil2 {fill:#E87255;fill-rule:nonzero}
    .fil1 {fill:white;fill-rule:nonzero}
   ]]>
  </style>
 </defs>
 <g id="Capa_x0020_1">
  <metadata id="CorelCorpID_0Corel-Layer"/>
  <g id="_1580448868112">
   <polygon class="fil0" points="23.73,57.34 19.06,50.13 20.62,50.08 25.23,56.31 "/>
   <polygon class="fil1" points="44.28,35.23 36.33,31.61 35.99,12.78 45.31,10.36 "/>
   <path class="fil2" d="M55.5 18.28c-0.69,7.8 -5.01,14.71 -11.22,16.95l0 -24.52 -12.64 0.34 0.03 23.49c-6.56,-2.59 -11.05,-8.19 -11.05,-15.86 0,-9.71 7.22,-18.04 16.57,-18.65 9.88,-0.63 19.26,7.57 18.31,18.25z"/>
   <g>
    <line class="fil3" x1="28.22" y1="34.89" x2="42.2" y2= "35.23" />
   </g>
   <g>
    <path class="fil0" d="M8.36 49.04c-0.81,0 -1.55,-0.14 -2.21,-0.42 -0.65,-0.27 -1.21,-0.65 -1.68,-1.13 -0.46,-0.48 -0.82,-1.03 -1.07,-1.66 -0.25,-0.63 -0.38,-1.3 -0.38,-1.99 0,-0.73 0.12,-1.41 0.37,-2.05 0.24,-0.63 0.6,-1.19 1.06,-1.68 0.47,-0.48 1.03,-0.86 1.69,-1.15 0.67,-0.28 1.41,-0.42 2.24,-0.42 0.82,0 1.56,0.14 2.21,0.42 0.65,0.29 1.21,0.67 1.67,1.14 0.45,0.48 0.8,1.03 1.04,1.67 0.24,0.63 0.36,1.29 0.36,1.97 0,0.17 0,0.33 -0.01,0.48 -0.01,0.16 -0.02,0.29 -0.05,0.39l-7.83 0c0.04,0.4 0.13,0.75 0.29,1.06 0.15,0.31 0.35,0.58 0.6,0.8 0.24,0.22 0.52,0.38 0.83,0.5 0.31,0.12 0.63,0.17 0.97,0.17 0.51,0 1,-0.12 1.46,-0.37 0.45,-0.26 0.77,-0.59 0.93,-1l2.23 0.62c-0.38,0.77 -0.97,1.41 -1.79,1.9 -0.82,0.5 -1.8,0.75 -2.93,0.75zm2.63 -6.11l0 0c-0.06,-0.76 -0.35,-1.37 -0.84,-1.83 -0.5,-0.46 -1.1,-0.69 -1.81,-0.69 -0.35,0 -0.67,0.06 -0.98,0.19 -0.3,0.12 -0.57,0.29 -0.8,0.51 -0.23,0.22 -0.42,0.48 -0.57,0.79 -0.15,0.31 -0.24,0.65 -0.26,1.03l5.26 0z"/>
    <path class="fil0" d="M18.11 49.04c-0.85,0 -1.68,-0.14 -2.5,-0.41 -0.81,-0.27 -1.51,-0.65 -2.09,-1.16l0.97 -1.62c0.62,0.44 1.22,0.77 1.81,0.99 0.59,0.23 1.17,0.34 1.75,0.34 0.52,0 0.92,-0.09 1.22,-0.29 0.3,-0.19 0.44,-0.47 0.44,-0.83 0,-0.36 -0.17,-0.63 -0.52,-0.79 -0.35,-0.17 -0.91,-0.36 -1.7,-0.58 -0.66,-0.18 -1.22,-0.36 -1.68,-0.53 -0.47,-0.16 -0.84,-0.35 -1.13,-0.57 -0.28,-0.21 -0.49,-0.45 -0.61,-0.73 -0.13,-0.28 -0.2,-0.61 -0.2,-1 0,-0.51 0.1,-0.98 0.3,-1.39 0.2,-0.41 0.48,-0.76 0.84,-1.05 0.36,-0.29 0.79,-0.52 1.27,-0.67 0.48,-0.16 1.01,-0.23 1.58,-0.23 0.76,0 1.47,0.11 2.13,0.33 0.67,0.21 1.28,0.57 1.83,1.06l-1.04 1.57c-0.52,-0.39 -1.02,-0.67 -1.5,-0.86 -0.49,-0.18 -0.97,-0.27 -1.44,-0.27 -0.44,0 -0.81,0.09 -1.11,0.27 -0.29,0.19 -0.44,0.48 -0.44,0.88 0,0.18 0.03,0.32 0.11,0.44 0.07,0.12 0.18,0.22 0.33,0.31 0.16,0.09 0.36,0.18 0.61,0.26 0.26,0.08 0.57,0.17 0.94,0.26 0.7,0.18 1.29,0.36 1.79,0.54 0.5,0.18 0.9,0.39 1.22,0.62 0.32,0.23 0.55,0.5 0.7,0.81 0.14,0.3 0.22,0.66 0.22,1.09 0,0.99 -0.37,1.77 -1.1,2.35 -0.74,0.57 -1.74,0.86 -3,0.86z"/>
    <path class="fil0" d="M29.02 48.87c-0.8,0 -1.5,-0.18 -2.09,-0.54 -0.59,-0.35 -0.97,-0.75 -1.31,-1.35l0 10.7 -2.41 -2.07 -0.27 -17.07 2.27 0 0 1.74c0.37,-0.59 0.85,-1.06 1.45,-1.4 0.59,-0.35 1.27,-0.52 2.05,-0.52 0.68,0 1.31,0.14 1.89,0.42 0.58,0.28 1.08,0.65 1.5,1.12 0.42,0.47 0.75,1.03 0.99,1.66 0.24,0.64 0.36,1.32 0.36,2.03 0,0.73 -0.11,1.42 -0.33,2.07 -0.22,0.64 -0.53,1.2 -0.92,1.68 -0.39,0.48 -0.86,0.85 -1.4,1.12 -0.54,0.27 -1.14,0.41 -1.78,0.41zm-0.87 -2.21l0 0c0.38,0 0.74,-0.08 1.07,-0.25 0.33,-0.17 0.61,-0.39 0.84,-0.68 0.23,-0.28 0.41,-0.61 0.54,-0.98 0.13,-0.38 0.2,-0.76 0.2,-1.16 0,-0.43 -0.07,-0.83 -0.22,-1.19 -0.14,-0.37 -0.33,-0.69 -0.59,-0.96 -0.25,-0.27 -0.54,-0.49 -0.89,-0.64 -0.34,-0.15 -0.71,-0.23 -1.11,-0.23 -0.24,0 -0.49,0.04 -0.75,0.12 -0.26,0.09 -0.5,0.21 -0.72,0.36 -0.22,0.16 -0.41,0.34 -0.59,0.54 -0.17,0.21 -0.3,0.44 -0.39,0.68l0 2.38c0.23,0.58 0.58,1.06 1.06,1.44 0.48,0.38 0.99,0.57 1.55,0.57z"/>
    <path class="fil0" d="M37.02 49.04c-0.49,0 -0.94,-0.08 -1.37,-0.24 -0.42,-0.16 -0.79,-0.39 -1.1,-0.68 -0.31,-0.29 -0.55,-0.63 -0.73,-1.02 -0.17,-0.38 -0.26,-0.81 -0.26,-1.27 0,-0.48 0.11,-0.92 0.32,-1.33 0.21,-0.4 0.51,-0.75 0.89,-1.03 0.38,-0.29 0.84,-0.51 1.37,-0.67 0.52,-0.16 1.1,-0.24 1.74,-0.24 0.45,0 0.89,0.04 1.32,0.12 0.43,0.07 0.82,0.18 1.15,0.32l0 -0.58c0,-0.67 -0.19,-1.18 -0.57,-1.54 -0.38,-0.36 -0.94,-0.55 -1.69,-0.55 -0.54,0 -1.07,0.1 -1.59,0.29 -0.51,0.2 -1.04,0.48 -1.58,0.86l-0.8 -1.65c1.31,-0.86 2.71,-1.29 4.22,-1.29 1.46,0 2.59,0.35 3.4,1.07 0.8,0.72 1.2,1.75 1.2,3.1l0 3.16c0,0.27 0.05,0.46 0.15,0.58 0.1,0.11 0.25,0.18 0.47,0.19l0 2.21c-0.44,0.09 -0.82,0.13 -1.14,0.13 -0.49,0 -0.87,-0.11 -1.13,-0.33 -0.26,-0.22 -0.43,-0.51 -0.49,-0.87l-0.06 -0.56c-0.45,0.59 -1,1.05 -1.65,1.35 -0.64,0.31 -1.33,0.47 -2.07,0.47zm0.74 -1.9l0 0c0.44,0 0.85,-0.07 1.25,-0.23 0.39,-0.15 0.7,-0.36 0.92,-0.62 0.28,-0.22 0.42,-0.46 0.42,-0.73l0 -1.16c-0.31,-0.12 -0.64,-0.21 -1,-0.28 -0.37,-0.07 -0.71,-0.11 -1.05,-0.11 -0.67,0 -1.22,0.15 -1.64,0.45 -0.43,0.31 -0.64,0.69 -0.64,1.16 0,0.43 0.17,0.8 0.5,1.09 0.34,0.29 0.75,0.43 1.24,0.43z"/>
    <path class="fil0" d="M43.78 43.78c0,-0.71 0.12,-1.38 0.36,-2.01 0.25,-0.64 0.6,-1.19 1.07,-1.67 0.46,-0.47 1.02,-0.85 1.68,-1.14 0.66,-0.28 1.4,-0.42 2.22,-0.42 1.11,0 2.06,0.23 2.84,0.71 0.78,0.48 1.36,1.1 1.75,1.88l-2.54 0.77c-0.21,-0.37 -0.5,-0.66 -0.87,-0.86 -0.36,-0.2 -0.76,-0.3 -1.2,-0.3 -0.37,0 -0.72,0.08 -1.04,0.22 -0.32,0.15 -0.6,0.36 -0.84,0.62 -0.24,0.27 -0.43,0.59 -0.56,0.96 -0.14,0.37 -0.21,0.79 -0.21,1.24 0,0.45 0.08,0.86 0.22,1.24 0.14,0.37 0.33,0.69 0.57,0.96 0.24,0.27 0.52,0.48 0.84,0.63 0.32,0.15 0.66,0.22 1.02,0.22 0.47,0 0.9,-0.11 1.29,-0.34 0.39,-0.24 0.67,-0.52 0.82,-0.86l2.54 0.78c-0.35,0.77 -0.93,1.4 -1.72,1.89 -0.8,0.49 -1.76,0.74 -2.89,0.74 -0.82,0 -1.56,-0.14 -2.22,-0.43 -0.66,-0.28 -1.22,-0.66 -1.68,-1.15 -0.47,-0.48 -0.83,-1.04 -1.08,-1.68 -0.25,-0.64 -0.37,-1.31 -0.37,-2z"/>
    <path class="fil0" d="M54.36 37.3l0 -2.57 2.59 0 0 2.57 -2.59 0zm0 11.55l0 0 0 -10.14 2.59 0 0 10.14 -2.59 0z"/>
    <path class="fil0" d="M63.02 49.04c-0.82,0 -1.57,-0.14 -2.22,-0.43 -0.66,-0.28 -1.22,-0.66 -1.68,-1.15 -0.45,-0.48 -0.81,-1.04 -1.05,-1.67 -0.25,-0.63 -0.37,-1.3 -0.37,-1.99 0,-0.71 0.12,-1.38 0.37,-2.01 0.24,-0.64 0.6,-1.19 1.05,-1.68 0.46,-0.48 1.02,-0.86 1.68,-1.15 0.65,-0.28 1.4,-0.42 2.22,-0.42 0.83,0 1.57,0.14 2.22,0.42 0.65,0.29 1.2,0.67 1.66,1.15 0.46,0.49 0.81,1.04 1.05,1.68 0.25,0.63 0.37,1.3 0.37,2.01 0,0.69 -0.12,1.36 -0.37,1.99 -0.24,0.63 -0.59,1.19 -1.04,1.67 -0.45,0.49 -1.01,0.87 -1.66,1.15 -0.66,0.29 -1.4,0.43 -2.23,0.43zm-2.65 -5.24l0 0c0,0.45 0.07,0.86 0.2,1.23 0.14,0.36 0.33,0.68 0.57,0.95 0.23,0.27 0.51,0.48 0.84,0.63 0.32,0.15 0.67,0.22 1.04,0.22 0.38,0 0.72,-0.07 1.05,-0.22 0.32,-0.15 0.6,-0.36 0.84,-0.63 0.24,-0.27 0.42,-0.59 0.56,-0.96 0.13,-0.38 0.2,-0.79 0.2,-1.24 0,-0.44 -0.07,-0.85 -0.2,-1.22 -0.14,-0.37 -0.32,-0.7 -0.56,-0.97 -0.24,-0.27 -0.52,-0.48 -0.84,-0.63 -0.33,-0.14 -0.67,-0.22 -1.05,-0.22 -0.37,0 -0.72,0.08 -1.04,0.23 -0.33,0.16 -0.61,0.37 -0.84,0.64 -0.24,0.27 -0.43,0.59 -0.57,0.97 -0.13,0.37 -0.2,0.78 -0.2,1.22z"/>
   </g>
   <g>
    <path class="fil1" d="M0 54.43c0,-0.53 0.1,-1.06 0.29,-1.58 0.19,-0.53 0.47,-1 0.84,-1.42 0.36,-0.42 0.81,-0.76 1.34,-1.01 0.54,-0.26 1.14,-0.39 1.81,-0.39 0.8,0 1.49,0.18 2.06,0.54 0.57,0.35 1,0.82 1.29,1.39l-1.09 0.73c-0.12,-0.26 -0.27,-0.49 -0.45,-0.67 -0.17,-0.18 -0.36,-0.33 -0.57,-0.43 -0.21,-0.11 -0.42,-0.19 -0.65,-0.23 -0.22,-0.05 -0.44,-0.07 -0.64,-0.07 -0.47,0 -0.87,0.09 -1.22,0.28 -0.35,0.18 -0.64,0.43 -0.88,0.74 -0.23,0.3 -0.41,0.65 -0.53,1.03 -0.12,0.38 -0.18,0.76 -0.18,1.14 0,0.43 0.07,0.84 0.21,1.23 0.14,0.39 0.34,0.74 0.59,1.04 0.25,0.29 0.55,0.53 0.9,0.71 0.35,0.18 0.73,0.27 1.15,0.27 0.21,0 0.43,-0.03 0.66,-0.08 0.23,-0.06 0.45,-0.14 0.66,-0.26 0.21,-0.12 0.41,-0.27 0.58,-0.46 0.18,-0.18 0.33,-0.4 0.45,-0.66l1.15 0.66c-0.14,0.33 -0.34,0.63 -0.6,0.88 -0.25,0.25 -0.54,0.47 -0.87,0.64 -0.32,0.17 -0.66,0.31 -1.02,0.4 -0.36,0.09 -0.72,0.13 -1.06,0.13 -0.63,0 -1.19,-0.13 -1.71,-0.39 -0.51,-0.27 -0.96,-0.61 -1.33,-1.04 -0.37,-0.43 -0.66,-0.91 -0.87,-1.46 -0.21,-0.54 -0.31,-1.09 -0.31,-1.66z"/>
    <path class="fil1" d="M12.53 58.97c-0.63,0 -1.2,-0.12 -1.72,-0.38 -0.52,-0.25 -0.96,-0.59 -1.33,-1 -0.38,-0.42 -0.67,-0.9 -0.87,-1.44 -0.2,-0.54 -0.3,-1.09 -0.3,-1.65 0,-0.59 0.1,-1.16 0.32,-1.7 0.22,-0.53 0.51,-1.01 0.89,-1.43 0.38,-0.41 0.82,-0.74 1.34,-0.98 0.52,-0.25 1.09,-0.37 1.7,-0.37 0.63,0 1.2,0.13 1.72,0.39 0.52,0.26 0.96,0.6 1.33,1.03 0.37,0.42 0.66,0.9 0.86,1.43 0.2,0.54 0.3,1.08 0.3,1.64 0,0.59 -0.1,1.15 -0.31,1.69 -0.21,0.54 -0.51,1.01 -0.89,1.42 -0.38,0.41 -0.83,0.74 -1.35,0.99 -0.52,0.24 -1.08,0.36 -1.69,0.36zm-2.81 -4.47l0 0c0,0.41 0.07,0.81 0.2,1.2 0.14,0.39 0.32,0.74 0.57,1.03 0.24,0.3 0.54,0.54 0.89,0.72 0.35,0.18 0.74,0.27 1.17,0.27 0.44,0 0.84,-0.1 1.18,-0.28 0.35,-0.19 0.64,-0.44 0.88,-0.74 0.24,-0.31 0.42,-0.65 0.55,-1.04 0.12,-0.38 0.18,-0.77 0.18,-1.16 0,-0.43 -0.06,-0.83 -0.19,-1.22 -0.14,-0.38 -0.33,-0.72 -0.57,-1.02 -0.24,-0.29 -0.54,-0.53 -0.88,-0.71 -0.35,-0.17 -0.73,-0.26 -1.15,-0.26 -0.45,0 -0.85,0.09 -1.2,0.28 -0.35,0.18 -0.64,0.43 -0.88,0.72 -0.24,0.3 -0.43,0.64 -0.55,1.03 -0.13,0.39 -0.2,0.78 -0.2,1.18z"/>
    <polygon class="fil1" points="19.5,52.69 19.5,58.91 18.1,58.91 18.1,50.08 19.2,50.08 24.24,56.47 24.25,50.09 25.65,50.09 25.65,58.91 24.5,58.91 "/>
    <polygon class="fil1" points="34,51.31 31.06,51.31 31.06,58.91 29.66,58.91 29.66,51.31 26.71,51.31 26.71,50.08 34,50.08 "/>
    <polygon class="fil1" points="41.11,57.68 41.11,58.91 35.05,58.91 35.05,50.08 41,50.08 41,51.31 36.45,51.31 36.45,53.82 40.39,53.82 40.39,54.98 36.45,54.98 36.45,57.68 "/>
    <polygon class="fil1" points="43.82,52.69 43.82,58.91 42.43,58.91 42.43,50.08 43.52,50.08 48.57,56.45 48.57,50.09 49.98,50.09 49.98,58.91 48.82,58.91 "/>
    <polygon class="fil1" points="51.84,58.91 51.84,50.08 53.23,50.08 53.23,58.91 "/>
    <path class="fil1" d="M55.11 58.91l0 -8.83 3.13 0c0.72,0 1.34,0.12 1.88,0.35 0.53,0.23 0.98,0.55 1.34,0.94 0.36,0.4 0.63,0.87 0.81,1.4 0.19,0.54 0.28,1.11 0.28,1.71 0,0.67 -0.11,1.28 -0.31,1.82 -0.2,0.55 -0.49,1.01 -0.86,1.4 -0.38,0.38 -0.83,0.68 -1.36,0.89 -0.53,0.21 -1.12,0.32 -1.78,0.32l-3.13 0zm6.02 -4.43l0 0c0,-0.46 -0.07,-0.89 -0.19,-1.28 -0.13,-0.39 -0.32,-0.72 -0.57,-1 -0.25,-0.28 -0.55,-0.49 -0.91,-0.65 -0.35,-0.16 -0.76,-0.24 -1.22,-0.24l-1.74 0 0 6.37 1.74 0c0.47,0 0.88,-0.08 1.24,-0.24 0.36,-0.17 0.66,-0.39 0.91,-0.68 0.24,-0.28 0.43,-0.62 0.55,-1.01 0.13,-0.39 0.19,-0.81 0.19,-1.27z"/>
    <path class="fil1" d="M67.57 58.97c-0.63,0 -1.2,-0.12 -1.72,-0.38 -0.52,-0.25 -0.97,-0.59 -1.34,-1 -0.37,-0.42 -0.66,-0.9 -0.86,-1.44 -0.21,-0.54 -0.31,-1.09 -0.31,-1.65 0,-0.59 0.11,-1.16 0.33,-1.7 0.21,-0.53 0.51,-1.01 0.88,-1.43 0.38,-0.41 0.83,-0.74 1.35,-0.98 0.52,-0.25 1.08,-0.37 1.69,-0.37 0.63,0 1.21,0.13 1.73,0.39 0.51,0.26 0.96,0.6 1.33,1.03 0.37,0.42 0.65,0.9 0.86,1.43 0.2,0.54 0.3,1.08 0.3,1.64 0,0.59 -0.11,1.15 -0.32,1.69 -0.21,0.54 -0.5,1.01 -0.89,1.42 -0.38,0.41 -0.83,0.74 -1.35,0.99 -0.51,0.24 -1.08,0.36 -1.68,0.36zm-2.81 -4.47l0 0c0,0.41 0.07,0.81 0.2,1.2 0.13,0.39 0.32,0.74 0.56,1.03 0.25,0.3 0.55,0.54 0.89,0.72 0.35,0.18 0.74,0.27 1.17,0.27 0.45,0 0.85,-0.1 1.19,-0.28 0.34,-0.19 0.64,-0.44 0.88,-0.74 0.24,-0.31 0.42,-0.65 0.54,-1.04 0.13,-0.38 0.19,-0.77 0.19,-1.16 0,-0.43 -0.07,-0.83 -0.2,-1.22 -0.13,-0.38 -0.32,-0.72 -0.56,-1.02 -0.25,-0.29 -0.54,-0.53 -0.89,-0.71 -0.34,-0.17 -0.72,-0.26 -1.15,-0.26 -0.45,0 -0.84,0.09 -1.19,0.28 -0.35,0.18 -0.64,0.43 -0.88,0.72 -0.24,0.3 -0.43,0.64 -0.56,1.03 -0.13,0.39 -0.19,0.78 -0.19,1.18z"/>
   </g>
  </g>
 </g>
</svg>
