<?xml version="1.0" encoding="UTF-8"?>
<!DOCTYPE svg PUBLIC "-//W3C//DTD SVG 1.1//EN" "http://www.w3.org/Graphics/SVG/1.1/DTD/svg11.dtd">
<!-- Creator: CorelDRAW 2019 (64-Bit) -->
<svg xmlns="http://www.w3.org/2000/svg" xml:space="preserve" width="148px" height="50px" version="1.1" style="shape-rendering:geometricPrecision; text-rendering:geometricPrecision; image-rendering:optimizeQuality; fill-rule:evenodd; clip-rule:evenodd"
viewBox="0 0 29.1 9.83"
 xmlns:xlink="http://www.w3.org/1999/xlink">
 <defs>
  <style type="text/css">
   <![CDATA[
    .fil0 {fill:#3F4E55;fill-rule:nonzero}
    .fil1 {fill:white;fill-rule:nonzero}
   ]]>
  </style>
 </defs>
 <g id="Capa_x0020_1">
  <metadata id="CorelCorpID_0Corel-Layer"/>
  <path class="fil0" d="M9.82 8.81l-2.04 -2.59 0.58 0 1.03 1.4 -0.09 -6.08 0.92 0 0 0.71c0.15,-0.24 0.34,-0.43 0.58,-0.57 0.24,-0.14 0.52,-0.21 0.83,-0.21 0.28,0 0.53,0.06 0.77,0.17 0.23,0.11 0.44,0.26 0.61,0.45 0.17,0.2 0.3,0.42 0.4,0.68 0.1,0.26 0.14,0.53 0.14,0.82 0,0.3 -0.04,0.58 -0.13,0.84 -0.09,0.26 -0.21,0.49 -0.37,0.68 -0.16,0.19 -0.35,0.34 -0.57,0.45 -0.22,0.11 -0.46,0.17 -0.72,0.17 -0.32,0 -0.61,-0.07 -0.85,-0.22 -0.24,-0.14 -0.39,-0.3 -0.52,-0.55l0 1.26 -0.56 0 -0.01 2.59zm1.59 -3.98l0 0c0.15,0 0.3,-0.03 0.43,-0.1 0.13,-0.07 0.25,-0.16 0.34,-0.27 0.09,-0.12 0.17,-0.25 0.22,-0.4 0.05,-0.15 0.08,-0.31 0.08,-0.47 0,-0.17 -0.03,-0.34 -0.09,-0.48 -0.06,-0.15 -0.13,-0.28 -0.24,-0.39 -0.1,-0.11 -0.22,-0.2 -0.36,-0.26 -0.14,-0.06 -0.29,-0.09 -0.45,-0.09 -0.1,0 -0.2,0.01 -0.3,0.05 -0.11,0.03 -0.2,0.08 -0.29,0.14 -0.09,0.07 -0.17,0.14 -0.24,0.22 -0.07,0.08 -0.12,0.18 -0.16,0.28l0 0.96c0.09,0.23 0.23,0.43 0.43,0.58 0.19,0.16 0.4,0.23 0.63,0.23l0 0zm-8.02 0.97c-0.33,0 -0.63,-0.06 -0.9,-0.17 -0.26,-0.11 -0.49,-0.26 -0.68,-0.46 -0.19,-0.19 -0.33,-0.42 -0.43,-0.67 -0.1,-0.26 -0.16,-0.53 -0.16,-0.81 0,-0.29 0.05,-0.57 0.15,-0.83 0.1,-0.25 0.25,-0.48 0.43,-0.68 0.19,-0.19 0.42,-0.35 0.69,-0.47 0.27,-0.11 0.57,-0.17 0.91,-0.17 0.33,0 0.63,0.06 0.89,0.17 0.26,0.12 0.49,0.28 0.68,0.47 0.18,0.19 0.32,0.41 0.42,0.67 0.1,0.26 0.15,0.53 0.15,0.8 0,0.07 0,0.13 -0.01,0.2 0,0.06 -0.01,0.11 -0.02,0.15l-3.17 0c0.01,0.17 0.05,0.31 0.12,0.43 0.06,0.13 0.14,0.24 0.24,0.33 0.1,0.09 0.21,0.15 0.34,0.2 0.12,0.05 0.25,0.07 0.39,0.07 0.2,0 0.4,-0.05 0.59,-0.15 0.18,-0.11 0.31,-0.24 0.38,-0.41l0.9 0.25c-0.15,0.32 -0.39,0.58 -0.73,0.77 -0.33,0.21 -0.72,0.31 -1.18,0.31l0 0zm1.06 -2.48l0 0c-0.02,-0.31 -0.14,-0.55 -0.34,-0.74 -0.2,-0.19 -0.44,-0.28 -0.73,-0.28 -0.14,0 -0.27,0.03 -0.4,0.08 -0.12,0.05 -0.23,0.12 -0.32,0.21 -0.1,0.08 -0.17,0.19 -0.23,0.32 -0.06,0.12 -0.1,0.26 -0.11,0.41l2.13 0 0 0zm2.89 2.48c-0.35,0 -0.68,-0.06 -1.01,-0.17 -0.33,-0.11 -0.62,-0.26 -0.85,-0.47l0.39 -0.65c0.25,0.17 0.5,0.31 0.74,0.4 0.23,0.09 0.47,0.13 0.7,0.13 0.21,0 0.38,-0.03 0.5,-0.11 0.12,-0.08 0.18,-0.19 0.18,-0.34 0,-0.14 -0.07,-0.25 -0.21,-0.32 -0.15,-0.07 -0.37,-0.14 -0.69,-0.23 -0.27,-0.08 -0.5,-0.15 -0.68,-0.22 -0.19,-0.06 -0.34,-0.14 -0.46,-0.23 -0.11,-0.08 -0.2,-0.18 -0.25,-0.3 -0.05,-0.11 -0.08,-0.24 -0.08,-0.4 0,-0.21 0.04,-0.4 0.12,-0.56 0.08,-0.17 0.2,-0.31 0.34,-0.43 0.15,-0.12 0.32,-0.21 0.52,-0.27 0.19,-0.07 0.41,-0.09 0.64,-0.09 0.31,0 0.59,0.04 0.86,0.13 0.27,0.08 0.52,0.23 0.74,0.43l-0.42 0.64c-0.21,-0.16 -0.41,-0.28 -0.61,-0.35 -0.2,-0.08 -0.39,-0.11 -0.58,-0.11 -0.18,0 -0.33,0.03 -0.45,0.11 -0.12,0.07 -0.18,0.19 -0.18,0.35 0,0.08 0.01,0.13 0.05,0.18 0.02,0.05 0.07,0.09 0.13,0.13 0.06,0.03 0.15,0.07 0.25,0.1 0.1,0.03 0.23,0.07 0.38,0.11 0.28,0.07 0.52,0.14 0.72,0.22 0.21,0.07 0.37,0.15 0.5,0.25 0.13,0.09 0.22,0.2 0.28,0.33 0.06,0.12 0.09,0.26 0.09,0.44 0,0.4 -0.15,0.72 -0.45,0.95 -0.3,0.23 -0.7,0.35 -1.21,0.35l0 0zm7.66 0c-0.2,0 -0.38,-0.03 -0.55,-0.1 -0.17,-0.06 -0.32,-0.16 -0.45,-0.27 -0.13,-0.12 -0.22,-0.26 -0.3,-0.42 -0.06,-0.15 -0.1,-0.33 -0.1,-0.51 0,-0.2 0.04,-0.37 0.13,-0.54 0.08,-0.16 0.21,-0.3 0.36,-0.42 0.15,-0.12 0.34,-0.21 0.55,-0.27 0.22,-0.06 0.45,-0.1 0.71,-0.1 0.18,0 0.36,0.02 0.53,0.05 0.18,0.03 0.34,0.07 0.47,0.13l0 -0.23c0,-0.28 -0.08,-0.48 -0.23,-0.63 -0.15,-0.14 -0.38,-0.22 -0.69,-0.22 -0.21,0 -0.43,0.04 -0.64,0.12 -0.21,0.08 -0.42,0.19 -0.64,0.35l-0.32 -0.67c0.53,-0.35 1.09,-0.53 1.71,-0.53 0.59,0 1.05,0.15 1.37,0.44 0.33,0.29 0.49,0.71 0.49,1.25l0 1.28c0,0.11 0.02,0.19 0.06,0.24 0.04,0.04 0.1,0.07 0.19,0.08l0 0.89c-0.18,0.04 -0.33,0.05 -0.46,0.05 -0.2,0 -0.35,-0.04 -0.46,-0.13 -0.1,-0.09 -0.17,-0.21 -0.2,-0.35l-0.02 -0.23c-0.18,0.24 -0.41,0.43 -0.67,0.55 -0.26,0.12 -0.54,0.19 -0.84,0.19l0 0zm0.3 -0.77l0 0c0.18,0 0.35,-0.03 0.51,-0.09 0.16,-0.07 0.28,-0.15 0.37,-0.26 0.11,-0.08 0.17,-0.18 0.17,-0.29l0 -0.47c-0.13,-0.05 -0.26,-0.09 -0.4,-0.12 -0.15,-0.02 -0.29,-0.04 -0.43,-0.04 -0.27,0 -0.49,0.06 -0.66,0.18 -0.18,0.13 -0.26,0.28 -0.26,0.47 0,0.18 0.06,0.33 0.2,0.44 0.14,0.12 0.3,0.18 0.5,0.18l0 0zm2.44 -1.36c0,-0.29 0.05,-0.56 0.15,-0.82 0.1,-0.26 0.24,-0.48 0.43,-0.67 0.19,-0.19 0.41,-0.35 0.68,-0.47 0.27,-0.11 0.57,-0.17 0.9,-0.17 0.45,0 0.83,0.1 1.15,0.29 0.32,0.2 0.55,0.45 0.71,0.76l-1.03 0.32c-0.08,-0.15 -0.2,-0.27 -0.35,-0.35 -0.15,-0.08 -0.31,-0.12 -0.49,-0.12 -0.15,0 -0.29,0.03 -0.42,0.08 -0.13,0.07 -0.24,0.15 -0.34,0.26 -0.1,0.11 -0.17,0.23 -0.23,0.38 -0.05,0.15 -0.08,0.32 -0.08,0.51 0,0.18 0.03,0.35 0.09,0.5 0.05,0.15 0.13,0.28 0.23,0.39 0.1,0.11 0.21,0.19 0.34,0.25 0.13,0.06 0.27,0.09 0.41,0.09 0.19,0 0.37,-0.04 0.52,-0.13 0.16,-0.1 0.28,-0.22 0.34,-0.35l1.03 0.31c-0.15,0.31 -0.38,0.57 -0.7,0.77 -0.32,0.2 -0.71,0.3 -1.17,0.3 -0.33,0 -0.63,-0.06 -0.9,-0.18 -0.27,-0.11 -0.5,-0.26 -0.68,-0.46 -0.19,-0.2 -0.34,-0.42 -0.44,-0.68 -0.1,-0.26 -0.15,-0.53 -0.15,-0.81l0 0zm4.29 -2.63l0 -1.04 1.05 0 0 1.04 -1.05 0zm0 4.68l0 0 0 -4.11 1.05 0 0 4.11 -1.05 0zm3.51 0.08c-0.34,0 -0.64,-0.06 -0.9,-0.18 -0.27,-0.11 -0.5,-0.26 -0.68,-0.46 -0.19,-0.2 -0.33,-0.42 -0.43,-0.68 -0.1,-0.25 -0.15,-0.53 -0.15,-0.8 0,-0.29 0.05,-0.56 0.15,-0.82 0.1,-0.26 0.24,-0.48 0.43,-0.68 0.18,-0.19 0.41,-0.35 0.68,-0.47 0.26,-0.11 0.56,-0.17 0.9,-0.17 0.33,0 0.63,0.06 0.9,0.17 0.26,0.12 0.48,0.28 0.67,0.47 0.19,0.2 0.33,0.42 0.42,0.68 0.11,0.26 0.15,0.53 0.15,0.82 0,0.27 -0.04,0.55 -0.15,0.8 -0.09,0.26 -0.23,0.48 -0.42,0.68 -0.18,0.2 -0.41,0.35 -0.67,0.46 -0.27,0.12 -0.57,0.18 -0.9,0.18zm-1.08 -2.12l0 0c0,0.18 0.03,0.34 0.08,0.49 0.06,0.15 0.14,0.28 0.23,0.39 0.1,0.11 0.21,0.19 0.35,0.25 0.12,0.06 0.27,0.09 0.42,0.09 0.15,0 0.29,-0.03 0.42,-0.09 0.13,-0.06 0.25,-0.14 0.34,-0.25 0.1,-0.11 0.17,-0.24 0.23,-0.39 0.05,-0.15 0.08,-0.32 0.08,-0.5 0,-0.18 -0.03,-0.35 -0.08,-0.5 -0.06,-0.15 -0.13,-0.28 -0.23,-0.39 -0.09,-0.11 -0.21,-0.19 -0.34,-0.26 -0.13,-0.05 -0.27,-0.08 -0.42,-0.08 -0.15,0 -0.3,0.03 -0.42,0.09 -0.14,0.06 -0.25,0.15 -0.35,0.26 -0.09,0.11 -0.17,0.24 -0.23,0.39 -0.05,0.15 -0.08,0.32 -0.08,0.5z"/>
  <path class="fil1" d="M0 7.98c0,-0.21 0.04,-0.43 0.12,-0.64 0.07,-0.21 0.19,-0.4 0.34,-0.57 0.14,-0.17 0.33,-0.31 0.54,-0.41 0.22,-0.11 0.46,-0.16 0.73,-0.16 0.33,0 0.61,0.07 0.84,0.22 0.23,0.14 0.4,0.33 0.52,0.56l-0.44 0.3c-0.05,-0.11 -0.11,-0.2 -0.18,-0.27 -0.07,-0.08 -0.15,-0.14 -0.23,-0.18 -0.09,-0.04 -0.17,-0.08 -0.27,-0.09 -0.09,-0.02 -0.17,-0.03 -0.26,-0.03 -0.19,0 -0.35,0.04 -0.49,0.11 -0.14,0.08 -0.26,0.18 -0.36,0.3 -0.09,0.13 -0.16,0.27 -0.21,0.42 -0.05,0.16 -0.07,0.31 -0.07,0.46 0,0.18 0.02,0.34 0.08,0.5 0.06,0.16 0.14,0.3 0.24,0.42 0.1,0.12 0.22,0.22 0.36,0.29 0.15,0.07 0.3,0.11 0.47,0.11 0.09,0 0.17,-0.01 0.27,-0.03 0.09,-0.03 0.18,-0.06 0.27,-0.11 0.08,-0.05 0.16,-0.11 0.23,-0.18 0.07,-0.08 0.13,-0.17 0.18,-0.27l0.47 0.27c-0.06,0.13 -0.14,0.25 -0.24,0.35 -0.11,0.1 -0.22,0.19 -0.36,0.26 -0.13,0.07 -0.26,0.13 -0.41,0.16 -0.15,0.04 -0.29,0.06 -0.43,0.06 -0.26,0 -0.48,-0.06 -0.69,-0.16 -0.21,-0.11 -0.39,-0.25 -0.54,-0.42 -0.15,-0.18 -0.27,-0.37 -0.35,-0.59 -0.09,-0.22 -0.13,-0.45 -0.13,-0.68l0 0zm5.08 1.84c-0.26,0 -0.49,-0.05 -0.7,-0.15 -0.21,-0.1 -0.39,-0.24 -0.54,-0.41 -0.15,-0.17 -0.27,-0.36 -0.35,-0.58 -0.08,-0.22 -0.12,-0.44 -0.12,-0.67 0,-0.24 0.04,-0.47 0.13,-0.69 0.09,-0.21 0.2,-0.41 0.36,-0.58 0.15,-0.16 0.33,-0.3 0.54,-0.39 0.21,-0.11 0.44,-0.15 0.69,-0.15 0.25,0 0.49,0.05 0.7,0.15 0.21,0.11 0.39,0.25 0.54,0.42 0.15,0.17 0.26,0.37 0.34,0.58 0.08,0.22 0.13,0.44 0.13,0.67 0,0.23 -0.05,0.46 -0.13,0.68 -0.09,0.22 -0.21,0.41 -0.36,0.58 -0.15,0.16 -0.34,0.3 -0.55,0.4 -0.21,0.09 -0.44,0.14 -0.68,0.14zm-1.14 -1.81l0 0c0,0.17 0.03,0.33 0.08,0.49 0.06,0.16 0.13,0.3 0.23,0.41 0.1,0.13 0.22,0.22 0.36,0.3 0.14,0.07 0.3,0.11 0.48,0.11 0.17,0 0.34,-0.04 0.47,-0.12 0.15,-0.07 0.26,-0.18 0.36,-0.3 0.1,-0.12 0.17,-0.26 0.22,-0.42 0.05,-0.15 0.08,-0.31 0.08,-0.47 0,-0.17 -0.03,-0.34 -0.08,-0.49 -0.06,-0.16 -0.13,-0.3 -0.23,-0.42 -0.1,-0.11 -0.22,-0.21 -0.36,-0.28 -0.14,-0.07 -0.29,-0.11 -0.46,-0.11 -0.19,0 -0.35,0.04 -0.49,0.11 -0.14,0.08 -0.26,0.18 -0.36,0.3 -0.09,0.12 -0.17,0.25 -0.22,0.41 -0.05,0.16 -0.08,0.32 -0.08,0.48zm3.96 -0.73l0 2.52 -0.57 0 0 -3.58 0.45 0 2.04 2.59 0.01 -2.59 0.56 0 0 3.58 -0.46 0 -2.03 -2.52zm5.88 -0.56l-1.19 0 0 3.08 -0.57 0 0 -3.08 -1.2 0 0 -0.5 2.96 0 0 0.5zm2.88 2.58l0 0.5 -2.46 0 0 -3.58 2.41 0 0 0.5 -1.84 0 0 1.02 1.6 0 0 0.47 -1.6 0 0 1.09 1.89 0zm1.1 -2.02l0 2.52 -0.57 0 0 -3.58 0.44 0 2.05 2.58 0 -2.58 0.57 0 0 3.58 -0.47 0 -2.02 -2.52zm3.25 2.52l0 -3.58 0.56 0 0 3.58 -0.56 0zm1.32 0l0 -3.58 1.27 0c0.29,0 0.54,0.05 0.76,0.14 0.22,0.1 0.4,0.22 0.54,0.38 0.15,0.16 0.26,0.36 0.33,0.57 0.08,0.22 0.12,0.45 0.12,0.69 0,0.27 -0.05,0.52 -0.13,0.74 -0.08,0.22 -0.2,0.41 -0.35,0.57 -0.15,0.15 -0.33,0.27 -0.55,0.36 -0.21,0.08 -0.45,0.13 -0.72,0.13l-1.27 0 0 0zm2.44 -1.8l0 0c0,-0.18 -0.03,-0.36 -0.08,-0.52 -0.05,-0.15 -0.13,-0.29 -0.23,-0.4 -0.1,-0.11 -0.22,-0.2 -0.37,-0.26 -0.14,-0.07 -0.3,-0.1 -0.49,-0.1l-0.71 0 0 2.58 0.71 0c0.19,0 0.36,-0.03 0.5,-0.1 0.15,-0.07 0.27,-0.16 0.37,-0.27 0.1,-0.12 0.18,-0.25 0.22,-0.41 0.06,-0.16 0.08,-0.33 0.08,-0.52l0 0zm2.61 1.82c-0.25,0 -0.49,-0.05 -0.7,-0.15 -0.21,-0.1 -0.39,-0.24 -0.54,-0.41 -0.15,-0.17 -0.27,-0.36 -0.35,-0.58 -0.08,-0.22 -0.12,-0.44 -0.12,-0.67 0,-0.24 0.04,-0.47 0.13,-0.69 0.09,-0.21 0.21,-0.41 0.36,-0.58 0.15,-0.16 0.33,-0.3 0.54,-0.39 0.21,-0.11 0.44,-0.15 0.69,-0.15 0.25,0 0.49,0.05 0.7,0.15 0.21,0.11 0.39,0.25 0.54,0.42 0.15,0.17 0.26,0.37 0.35,0.58 0.08,0.22 0.12,0.44 0.12,0.67 0,0.23 -0.05,0.46 -0.13,0.68 -0.09,0.22 -0.2,0.41 -0.36,0.58 -0.16,0.16 -0.34,0.3 -0.55,0.4 -0.21,0.09 -0.44,0.14 -0.68,0.14zm-1.14 -1.81l0 0c0,0.17 0.03,0.33 0.08,0.49 0.06,0.16 0.13,0.3 0.23,0.41 0.1,0.13 0.22,0.22 0.36,0.3 0.14,0.07 0.3,0.11 0.47,0.11 0.19,0 0.35,-0.04 0.49,-0.12 0.13,-0.07 0.26,-0.18 0.35,-0.3 0.1,-0.12 0.17,-0.26 0.22,-0.42 0.05,-0.15 0.08,-0.31 0.08,-0.47 0,-0.17 -0.03,-0.34 -0.08,-0.49 -0.05,-0.16 -0.13,-0.3 -0.23,-0.42 -0.1,-0.11 -0.22,-0.21 -0.36,-0.28 -0.14,-0.07 -0.29,-0.11 -0.47,-0.11 -0.18,0 -0.34,0.04 -0.48,0.11 -0.14,0.08 -0.26,0.18 -0.35,0.3 -0.1,0.12 -0.18,0.25 -0.23,0.41 -0.05,0.16 -0.08,0.32 -0.08,0.48z"/>
 </g>
</svg>
